<svg width="40" height="47" viewBox="0 0 40 47" fill="none" xmlns="http://www.w3.org/2000/svg">
<g clip-path="url(#clip0)">
<path d="M-1.49868e-06 12.2324L-4.99559e-07 35.0895L20 46.5181L40 35.0895L40 12.2324L20 0.803779L-1.49868e-06 12.2324Z" fill="#FCAF26"/>
<path d="M7.28249 22.0006L7.28249 15.5006L12.5754 15.5006L12.5754 16.9863L9.00035 16.9863L9.00035 17.822L10.6718 17.822C11.4208 17.822 12.0089 18.017 12.4361 18.407C12.8694 18.7908 13.0861 19.2923 13.0861 19.9113C13.0861 20.5304 12.8694 21.0349 12.4361 21.4249C12.0089 21.8087 11.4208 22.0006 10.6718 22.0006L7.28249 22.0006ZM9.00035 20.5149L10.5789 20.5149C10.808 20.5149 10.9875 20.4561 11.1175 20.3385C11.2537 20.2208 11.3218 20.0785 11.3218 19.9113C11.3218 19.7442 11.2537 19.6018 11.1175 19.4842C10.9875 19.3666 10.808 19.3078 10.5789 19.3078L9.00035 19.3078L9.00035 20.5149Z" fill="white"/>
<path d="M13.9657 22.0006L13.9657 15.5006L18.98 15.5006L18.98 17.0792L15.6835 17.0792L15.6835 18.0542L18.33 18.0542L18.33 19.447L15.6835 19.447L15.6835 20.422L18.98 20.422L18.98 22.0006L13.9657 22.0006Z" fill="white"/>
<path d="M19.9506 22.0006L19.9506 15.5006L23.1077 15.5006C23.9063 15.5006 24.5532 15.7297 25.0485 16.1878C25.5499 16.6397 25.8006 17.1999 25.8006 17.8685C25.8006 18.537 25.5499 19.1004 25.0485 19.5585C24.5532 20.0104 23.9063 20.2363 23.1077 20.2363L21.6685 20.2363L21.6685 22.0006L19.9506 22.0006ZM21.6685 18.6578L23.0613 18.6578C23.3832 18.6578 23.6246 18.5866 23.7856 18.4442C23.9527 18.3018 24.0363 18.1099 24.0363 17.8685C24.0363 17.627 23.9527 17.4351 23.7856 17.2928C23.6246 17.1504 23.3832 17.0792 23.0613 17.0792L21.6685 17.0792L21.6685 18.6578Z" fill="white"/>
<path d="M26.6791 22.0006L26.6791 15.5006L28.397 15.5006L28.397 18.7042L28.2577 19.5399H28.3505L30.7184 15.5006L32.7148 15.5006L32.7148 22.0006L30.997 22.0006L30.997 18.797L31.1363 17.9613H31.0434L28.6755 22.0006L26.6791 22.0006Z" fill="white"/>
<path d="M3.75555 32.4006L3.75555 29.7078L4.49841 29.7078L5.79841 24.7863L9.00198 24.7863L10.302 29.7078L11.0448 29.7078L11.0448 32.4006L9.41984 32.4006L9.41984 31.2863L5.38055 31.2863L5.38055 32.4006L3.75555 32.4006ZM6.12341 29.7078L8.67698 29.7078L7.79484 26.3649L7.00555 26.3649L6.12341 29.7078Z" fill="white"/>
<path d="M11.6941 31.2863L11.6941 24.7863L16.7084 24.7863L16.7084 26.3649L13.412 26.3649L13.412 27.3399L16.0584 27.3399L16.0584 28.7328L13.412 28.7328L13.412 29.7078L16.7084 29.7078L16.7084 31.2863L11.6941 31.2863Z" fill="white"/>
<path d="M17.1683 26.3649L17.1683 24.7863L22.9719 24.7863L22.9719 26.3649L20.929 26.3649L20.929 31.2863L19.2112 31.2863L19.2112 26.3649L17.1683 26.3649Z" fill="white"/>
<path d="M23.664 31.2863L23.664 24.7863L28.6783 24.7863L28.6783 26.3649L25.3818 26.3649L25.3818 27.3399L28.0283 27.3399L28.0283 28.7328L25.3818 28.7328L25.3818 29.7078L28.6783 29.7078L28.6783 31.2863L23.664 31.2863Z" fill="white"/>
<path d="M29.6489 31.2863L29.6489 24.7863L31.3668 24.7863L31.3668 27.9899L31.2275 28.8256H31.3203L33.6882 24.7863L35.6846 24.7863L35.6846 31.2863L33.9668 31.2863L33.9668 28.0828L34.1061 27.247H34.0132L31.6453 31.2863L29.6489 31.2863ZM30.9953 22.697L32.1096 22.697C32.1096 23.0375 32.2953 23.2078 32.6668 23.2078C33.0382 23.2078 33.2239 23.0375 33.2239 22.697L34.3382 22.697C34.3382 23.1489 34.1927 23.5111 33.9018 23.7835C33.6108 24.0497 33.1992 24.1828 32.6668 24.1828C32.1344 24.1828 31.7227 24.0497 31.4318 23.7835C31.1408 23.5111 30.9953 23.1489 30.9953 22.697Z" fill="white"/>
</g>
<defs>
<clipPath id="clip0">
<rect width="46.4286" height="40" fill="white" transform="translate(0 47.0007) rotate(-90)"/>
</clipPath>
</defs>
</svg>
