<svg width="56" height="56" viewBox="0 0 56 56" fill="none" xmlns="http://www.w3.org/2000/svg">
<mask id="mask0" mask-type="alpha" maskUnits="userSpaceOnUse" x="0" y="0" width="56" height="56">
<circle cx="28" cy="28" r="28" fill="#C4C4C4"/>
</mask>
<g mask="url(#mask0)">
<circle cx="28" cy="28" r="28" fill="#333333"/>
<path fill-rule="evenodd" clip-rule="evenodd" d="M19.9772 5.28239C16.7096 5.17501 13.2358 5.06084 10.3829 4.70423L10.6167 2.83417C13.3922 3.18111 16.6906 3.28857 19.8965 3.39301C21.6281 3.44942 23.3327 3.50495 24.9134 3.59687C27.1115 3.72468 29.1049 3.92623 30.4815 4.33631C31.1543 4.53673 31.8237 4.82642 32.2715 5.30075C32.5106 5.554 32.6981 5.87253 32.7685 6.25553C32.8385 6.63655 32.7791 7.00747 32.6456 7.34582C32.4994 7.71636 32.236 8.13892 31.9287 8.57302C31.6114 9.0213 31.2068 9.53743 30.7369 10.1057C29.7966 11.2425 28.5615 12.6278 27.1657 14.1617C26.3308 15.0792 25.4375 16.0508 24.5111 17.0584C22.3272 19.4337 19.9593 22.0092 17.7382 24.5475C14.5657 28.1731 11.7615 31.6465 10.2579 34.2734C9.48896 35.6168 9.15366 36.5841 9.15393 37.1757C9.15405 37.4365 9.21932 37.5458 9.26796 37.6C9.32379 37.6623 9.47069 37.7761 9.84911 37.8401C11.4764 38.115 13.4051 37.2459 15.6373 35.4586C17.831 33.7022 20.0877 31.2507 22.3384 28.7884C22.3997 28.7213 22.4611 28.6541 22.5225 28.5869C24.6799 26.2262 26.8421 23.8602 28.8467 22.2791C29.8794 21.4646 30.9324 20.8069 31.9784 20.479C33.0498 20.1431 34.1556 20.1437 35.1866 20.7138C36.8853 21.6531 38.6372 23.558 40.2073 25.7754C41.7961 28.0193 43.2716 30.6883 44.3883 33.2763C45.4984 35.8491 46.2856 38.4143 46.4398 40.4387C46.5163 41.4436 46.4456 42.4154 46.0955 43.2041C45.7196 44.0508 45.0287 44.6557 44.0334 44.815C42.5099 45.0589 40.4735 44.6706 38.3959 44.111C36.7467 43.6668 34.9542 43.0792 33.2093 42.5071C32.7179 42.3461 32.2303 42.1862 31.7507 42.0312C29.535 41.3147 27.5024 40.7045 25.9187 40.4692C25.1244 40.3511 24.5156 40.3395 24.086 40.4194C23.6688 40.4971 23.5364 40.635 23.4813 40.7308C23.4754 40.7409 23.4031 40.9026 23.5301 41.3834C23.6497 41.836 23.9071 42.4198 24.3042 43.1185C25.0949 44.5099 26.3433 46.1922 27.7792 47.9208C30.6482 51.3747 34.1465 54.8724 35.8826 56.3617L34.6555 57.7921C32.8272 56.2238 29.2555 52.6476 26.3295 49.125C24.8678 47.3654 23.5375 45.5838 22.6657 44.0497C22.2316 43.2857 21.8868 42.5414 21.708 41.8648C21.5367 41.2164 21.4698 40.4478 21.8478 39.7908C22.2725 39.0527 23.0003 38.7045 23.7413 38.5666C24.4701 38.431 25.3177 38.4745 26.1958 38.605C27.9568 38.8667 30.1324 39.5272 32.3305 40.238C32.8285 40.399 33.3284 40.5628 33.8275 40.7264C35.5645 41.2957 37.2907 41.8615 38.886 42.2912C40.9756 42.8541 42.6543 43.1272 43.7355 42.9541C44.0426 42.905 44.2309 42.7594 44.373 42.4394C44.5408 42.0615 44.6268 41.4504 44.5606 40.5818C44.4294 38.8593 43.7334 36.5155 42.6579 34.023C41.589 31.5457 40.1762 28.9929 38.6692 26.8645C37.1434 24.7096 35.5919 23.0915 34.2746 22.3631C33.7976 22.0993 33.247 22.0563 32.5421 22.2773C31.8118 22.5062 30.9686 23.0058 30.0138 23.7588C28.132 25.2431 26.058 27.5122 23.841 29.9378L23.7294 30.0599C21.5028 32.4959 19.1449 35.0644 16.8152 36.9297C14.5241 38.7641 12.0206 40.1183 9.53513 39.6983C8.88536 39.5886 8.29221 39.3347 7.86494 38.8583C7.43048 38.3739 7.2696 37.7736 7.26932 37.1765C7.26879 36.0524 7.8357 34.7114 8.62232 33.3371C10.23 30.5284 13.1507 26.9282 16.3199 23.3064C18.5569 20.75 20.9519 18.1449 23.1421 15.7627C24.064 14.76 24.9496 13.7968 25.7718 12.8932C27.1654 11.3619 28.3748 10.0046 29.2846 8.9046C29.7396 8.35443 30.1113 7.87857 30.3905 7.48416C30.6797 7.07558 30.833 6.80476 30.8925 6.65412C30.9012 6.6321 30.9063 6.6154 30.9093 6.60347C30.907 6.6008 30.9043 6.59782 30.9012 6.59453C30.8032 6.49083 30.5299 6.31718 29.9435 6.14249C28.8016 5.80236 27.0108 5.60662 24.804 5.47831C23.3294 5.39256 21.6813 5.3384 19.9772 5.28239ZM30.923 6.62124C30.923 6.62124 30.9228 6.62099 30.9226 6.62049L30.923 6.62124ZM30.9133 6.58227C30.9133 6.58063 30.9134 6.57977 30.9134 6.57976C30.9135 6.57975 30.9135 6.58056 30.9133 6.58227Z" fill="#008066"/>
<path d="M2.24542 31.2308V24.4461H4.76542L6.17081 27.9354H6.41312L7.8185 24.4461H10.3385V31.2308H8.54542V27.3538L8.69081 26.4815H8.59388L7.28542 29.68H5.2985L3.99004 26.4815H3.89311L4.0385 27.3538V31.2308H2.24542Z" fill="white"/>
<path d="M10.967 31.2308L12.8085 24.4461H16.1039L17.9454 31.2308H16.1039L15.7647 29.8738H13.1478L12.8085 31.2308H10.967ZM13.5354 28.3231H15.377L14.7954 26.0938H14.117L13.5354 28.3231Z" fill="white"/>
<path d="M18.5728 31.2308V24.4461H21.8682C22.7017 24.4461 23.377 24.6852 23.8939 25.1634C24.4173 25.6351 24.679 26.2198 24.679 26.9177C24.679 27.6155 24.4173 28.2035 23.8939 28.6817C23.377 29.1534 22.7017 29.3892 21.8682 29.3892H20.3659V31.2308H18.5728ZM20.3659 27.7415H21.8197C22.1557 27.7415 22.4077 27.6672 22.5757 27.5186C22.7502 27.37 22.8374 27.1697 22.8374 26.9177C22.8374 26.6657 22.7502 26.4654 22.5757 26.3168C22.4077 26.1681 22.1557 26.0938 21.8197 26.0938H20.3659V27.7415Z" fill="white"/>
<path d="M25.5959 31.2308V24.4461H27.389V29.5831H29.1336V24.4461H30.9267V29.5831H32.6616V24.4461H34.4644V31.2308H25.5959Z" fill="white"/>
<path d="M35.7236 31.2308V24.4461H39.019C39.8526 24.4461 40.5278 24.6852 41.0447 25.1634C41.5681 25.6351 41.8298 26.2198 41.8298 26.9177C41.8298 27.6155 41.5681 28.2035 41.0447 28.6817C40.5278 29.1534 39.8526 29.3892 39.019 29.3892H37.5167V31.2308H35.7236ZM37.5167 27.7415H38.9706C39.3066 27.7415 39.5586 27.6672 39.7266 27.5186C39.901 27.37 39.9883 27.1697 39.9883 26.9177C39.9883 26.6657 39.901 26.4654 39.7266 26.3168C39.5586 26.1681 39.3066 26.0938 38.9706 26.0938H37.5167V27.7415Z" fill="white"/>
<path d="M41.879 24.4461H43.769L44.8836 27.3538H45.6105L46.7252 24.4461H48.5667L45.9498 31.2308H44.1082L44.9805 29.0015H43.6721L41.879 24.4461Z" fill="white"/>
<path d="M48.5175 26.0938V24.4461H54.5752V26.0938H52.4429V31.2308H50.6498V26.0938H48.5175Z" fill="white"/>
</g>
</svg>
