<svg width="56" height="56" viewBox="0 0 56 56" fill="none" xmlns="http://www.w3.org/2000/svg">
<mask id="mask0" mask-type="alpha" maskUnits="userSpaceOnUse" x="0" y="0" width="56" height="56">
<circle cx="28" cy="28" r="28" fill="url(#paint0_radial)"/>
</mask>
<g mask="url(#mask0)">
<path d="M14.2256 -0.462359L25.0286 13.8164L31.8191 8.84986L31.2295 -6.76363L14.2256 -0.462359Z" fill="#E6CA1E"/>
<path d="M7.74373 -2.63525C7.43507 -2.32485 -0.281372 12.5747 -0.281372 12.5747H8.97836L21.3247 24.0598L25.0286 13.8163L14.2255 -0.462403L7.74373 -2.63525Z" fill="#5C73B8"/>
<path d="M25.0283 13.8162L21.3244 24.0596L31.8188 32.1302L33.9794 29.6469L32.4361 26.5429L43.5478 16.2994L31.8188 8.84966L25.0283 13.8162Z" fill="#F15B5B"/>
<path d="M46.6343 -9.15384L31.2292 -6.7637L31.8187 8.84978L43.5477 16.2996L42.6217 6.05612L53.1161 -0.462437L46.6343 -9.15384Z" fill="#F15B5B"/>
<path d="M65.1541 6.98731L53.1164 -0.462463L42.622 6.05609L43.548 16.2995L47.2519 19.0932L50.3385 14.7475L61.4502 19.714L65.1541 6.98731Z" fill="#F8AA9E"/>
<path d="M62.0669 29.3366L61.4496 19.714L50.3379 14.7475L47.2514 19.0932L43.5475 16.2995L39.8436 19.714L45.3994 32.1303L51.5726 27.7846L60.8323 38.3384L62.0669 29.3366Z" fill="#5C73B8"/>
<path d="M36.1398 42.6842L47.2514 34.924L45.3995 32.1304L39.8437 19.7141L32.4359 26.543L33.9792 29.6471L31.8186 32.1304L27.806 38.3385L36.1398 42.6842Z" fill="#F15B5B"/>
<path d="M21.3247 24.0596L14.2256 42.6841L27.8065 45.4777V38.3384L31.8191 32.1302L21.3247 24.0596Z" fill="#5C73B8"/>
<path d="M8.97784 12.5747L-2.4425 19.7141L-0.2819 22.5077H0.952732V38.3385L8.05186 45.4779L14.225 42.6842L21.3242 24.0598L8.97784 12.5747Z" fill="#F15B5B"/>
<path d="M-4.91145 11.3329L-7.07205 21.8868L-2.44218 19.7139L8.97816 12.5746H-0.281578L-4.91145 11.3329Z" fill="#F15B5B"/>
<path d="M-8.61539 28.0951L-7.0721 21.8869L-2.44223 19.7141L-0.281624 22.5077H0.953008V38.3385L-2.75089 43.9258L-8.61539 28.0951Z" fill="#F15B5B"/>
<path d="M3.73111 59.4463L-2.7507 43.9259L0.953192 38.3386L8.05232 45.4779L14.2255 42.6843L21.3246 44.1432L17.0034 57.8942L3.73111 59.4463Z" fill="#5C73B8"/>
<path d="M36.1399 42.6843L37.0659 70.0001L17.0031 57.8942L21.3243 44.1432L27.8061 45.4779V38.3386L36.1399 42.6843Z" fill="#F8AA9E"/>
<path d="M47.2517 34.924L52.4989 43.305L55.8941 42.0634L57.1287 54.4797L45.7084 59.7566L36.603 56.3856L36.14 42.6842L47.2517 34.924Z" fill="#E6CA1E"/>
<path d="M60.8325 38.3385L55.894 42.0634L52.4987 43.305L45.3996 32.1304L51.5728 27.7847L60.8325 38.3385Z" fill="#F15B5B"/>
<path d="M5.6163 32.3077V24.0154H7.80784V27.0954H11.0063V24.0154H13.1978V32.3077H11.0063V29.1092H7.80784V32.3077H5.6163Z" fill="white"/>
<path d="M15.68 31.2652C14.8113 30.4044 14.3769 29.3698 14.3769 28.1615C14.3769 26.9532 14.8113 25.9226 15.68 25.0697C16.5566 24.2089 17.6622 23.7784 18.9969 23.7784C20.3316 23.7784 21.4333 24.2089 22.302 25.0697C23.1786 25.9226 23.6169 26.9532 23.6169 28.1615C23.6169 29.3698 23.1786 30.4044 22.302 31.2652C21.4333 32.1181 20.3316 32.5446 18.9969 32.5446C17.6622 32.5446 16.5566 32.1181 15.68 31.2652ZM17.3266 26.4438C16.9001 26.8782 16.6869 27.4508 16.6869 28.1615C16.6869 28.8723 16.9001 29.4449 17.3266 29.8792C17.7531 30.3136 18.3098 30.5308 18.9969 30.5308C19.684 30.5308 20.2408 30.3136 20.6672 29.8792C21.0937 29.4449 21.3069 28.8723 21.3069 28.1615C21.3069 27.4508 21.0937 26.8782 20.6672 26.4438C20.2408 26.0095 19.684 25.7923 18.9969 25.7923C18.3098 25.7923 17.7531 26.0095 17.3266 26.4438Z" fill="white"/>
<path d="M24.7969 32.3077V24.0154H29.2392C30.0921 24.0154 30.7595 24.2128 31.2412 24.6077C31.7229 25.0025 31.9638 25.4961 31.9638 26.0884C31.9638 26.6808 31.7466 27.1467 31.3123 27.4863C31.1069 27.6284 30.8898 27.7351 30.6607 27.8061V27.8654C30.9608 27.9522 31.2254 28.0746 31.4544 28.2326C31.9915 28.6038 32.26 29.1526 32.26 29.8792C32.26 30.59 31.9875 31.1744 31.4426 31.6324C30.8977 32.0826 30.1237 32.3077 29.1207 32.3077H24.7969ZM26.9884 27.2138H28.7654C29.0576 27.2138 29.2787 27.1506 29.4287 27.0243C29.5788 26.89 29.6538 26.7163 29.6538 26.5031C29.6538 26.2898 29.5788 26.12 29.4287 25.9937C29.2787 25.8594 29.0576 25.7923 28.7654 25.7923H26.9884V27.2138ZM26.9884 30.5308H28.8838C29.255 30.5308 29.5354 30.4557 29.7249 30.3057C29.9144 30.1556 30.0092 29.9542 30.0092 29.7015C30.0092 29.4488 29.9144 29.2474 29.7249 29.0974C29.5354 28.9473 29.255 28.8723 28.8838 28.8723H26.9884V30.5308Z" fill="white"/>
<path d="M34.3978 31.2652C33.5291 30.4044 33.0948 29.3698 33.0948 28.1615C33.0948 26.9532 33.5291 25.9226 34.3978 25.0697C35.2744 24.2089 36.3801 23.7784 37.7148 23.7784C39.0494 23.7784 40.1511 24.2089 41.0198 25.0697C41.8964 25.9226 42.3348 26.9532 42.3348 28.1615C42.3348 29.3698 41.8964 30.4044 41.0198 31.2652C40.1511 32.1181 39.0494 32.5446 37.7148 32.5446C36.3801 32.5446 35.2744 32.1181 34.3978 31.2652ZM36.0444 26.4438C35.618 26.8782 35.4048 27.4508 35.4048 28.1615C35.4048 28.8723 35.618 29.4449 36.0444 29.8792C36.4709 30.3136 37.0277 30.5308 37.7148 30.5308C38.4018 30.5308 38.9586 30.3136 39.3851 29.8792C39.8115 29.4449 40.0248 28.8723 40.0248 28.1615C40.0248 27.4508 39.8115 26.8782 39.3851 26.4438C38.9586 26.0095 38.4018 25.7923 37.7148 25.7923C37.0277 25.7923 36.4709 26.0095 36.0444 26.4438Z" fill="white"/>
<path d="M43.5147 32.3077V24.0154H49.9117V26.0292H45.7063V27.2731H49.0824V29.05H45.7063V30.2938H49.9117V32.3077H43.5147Z" fill="white"/>
</g>
<defs>
<radialGradient id="paint0_radial" cx="0" cy="0" r="1" gradientUnits="userSpaceOnUse" gradientTransform="translate(28 28) rotate(90) scale(28)">
<stop stop-color="#F8AA9E"/>
<stop offset="1" stop-color="#D62B2B"/>
</radialGradient>
</defs>
</svg>
